HIERARCHY
ROOT newVegas:Hips
{
	OFFSET 0.000000 96.479958 0.000000
	CHANNELS 6 Xposition Yposition Zposition Xrotation Yrotation Zrotation
	JOINT newVegas:Pelvis
	{
		OFFSET 0.000000 0.000000 0.000000
		CHANNELS 3 Xrotation Yrotation Zrotation
		JOINT newVegas:LeftUpLeg
		{
			OFFSET 18.735201 -5.666702 -4.541200
			CHANNELS 3 Xrotation Yrotation Zrotation
			JOINT newVegas:LeftLeg
			{
				OFFSET -0.021200 -31.938179 0.493100
				CHANNELS 3 Xrotation Yrotation Zrotation
				JOINT newVegas:LeftFoot
				{
					OFFSET 0.021200 -31.938179 -4.336299
					CHANNELS 3 Xrotation Yrotation Zrotation
					JOINT newVegas:LeftToeBase
					{
						OFFSET 0.943001 -26.722000 15.023500
						CHANNELS 3 Xrotation Yrotation Zrotation
						End Site
						{
							OFFSET 0.000000 30.670183 0.000000
						}
					}
				}
				JOINT newVegas:Left_PantLeg
				{
					OFFSET 0.663870 -9.044666 -1.108900
					CHANNELS 3 Xrotation Yrotation Zrotation
					End Site
					{
						OFFSET 1.415995 20.635357 0.000000
					}
				}
			}
		}
		JOINT newVegas:RightUpLeg
		{
			OFFSET -18.735201 -5.666702 -4.541200
			CHANNELS 3 Xrotation Yrotation Zrotation
			JOINT newVegas:RightLeg
			{
				OFFSET 0.018946 -31.938133 0.493100
				CHANNELS 3 Xrotation Yrotation Zrotation
				JOINT newVegas:RightFoot
				{
					OFFSET -0.018946 -31.938126 -4.336299
					CHANNELS 3 Xrotation Yrotation Zrotation
					JOINT newVegas:RightToeBase
					{
						OFFSET -0.943001 -26.722004 15.023500
						CHANNELS 3 Xrotation Yrotation Zrotation
						End Site
						{
							OFFSET 0.000000 30.670187 0.000000
						}
					}
				}
				JOINT newVegas:Right_PantLeg
				{
					OFFSET -0.661674 -9.044716 -1.108900
					CHANNELS 3 Xrotation Yrotation Zrotation
					End Site
					{
						OFFSET -1.415958 20.635269 0.000000
					}
				}
			}
		}
	}
	JOINT newVegas:Spine
	{
		OFFSET 0.000000 10.199997 -0.299500
		CHANNELS 3 Xrotation Yrotation Zrotation
		JOINT newVegas:Spine1
		{
			OFFSET 0.000000 11.900002 -1.516600
			CHANNELS 3 Xrotation Yrotation Zrotation
			JOINT newVegas:Spine2
			{
				OFFSET 0.000000 13.600006 -2.842500
				CHANNELS 3 Xrotation Yrotation Zrotation
				JOINT newVegas:Neck
				{
					OFFSET 0.000000 9.624100 -2.890100
					CHANNELS 3 Xrotation Yrotation Zrotation
					JOINT newVegas:Head
					{
						OFFSET 0.000000 14.068802 -1.351900
						CHANNELS 3 Xrotation Yrotation Zrotation
						JOINT newVegas:Hair_Back
						{
							OFFSET 0.000000 3.231903 -17.524799
							CHANNELS 3 Xrotation Yrotation Zrotation
							End Site
							{
								OFFSET 0.000000 19.849884 0.000000
							}
						}
						JOINT newVegas:Hair_Front
						{
							OFFSET 0.000000 31.260406 4.573800
							CHANNELS 3 Xrotation Yrotation Zrotation
							JOINT newVegas:Hair_Front1
							{
								OFFSET 0.000000 2.284103 11.993300
								CHANNELS 3 Xrotation Yrotation Zrotation
								JOINT newVegas:Hair_Front2
								{
									OFFSET 0.000000 2.284103 11.993300
									CHANNELS 3 Xrotation Yrotation Zrotation
									End Site
									{
										OFFSET 0.000000 12.208862 0.000000
									}
								}
							}
						}
						JOINT newVegas:Jowel
						{
							OFFSET 0.000000 -7.458206 6.864100
							CHANNELS 3 Xrotation Yrotation Zrotation
							End Site
							{
								OFFSET 0.000000 19.849884 0.000000
							}
						}
					}
				}
				JOINT newVegas:LeftShoulder
				{
					OFFSET 15.263000 10.923401 -0.547700
					CHANNELS 3 Xrotation Yrotation Zrotation
					JOINT newVegas:LeftArm
					{
						OFFSET 25.438599 -2.830597 -13.032500
						CHANNELS 3 Xrotation Yrotation Zrotation
						JOINT newVegas:LeftForeArm
						{
							OFFSET 29.960503 0.000000 0.000000
							CHANNELS 3 Xrotation Yrotation Zrotation
							JOINT newVegas:LeftHand
							{
								OFFSET 27.849251 0.000000 0.000000
								CHANNELS 3 Xrotation Yrotation Zrotation
								JOINT newVegas:LeftHandThumb1
								{
									OFFSET 4.487587 -3.305161 6.305391
									CHANNELS 3 Xrotation Yrotation Zrotation
									JOINT newVegas:LeftHandThumb2
									{
										OFFSET 5.480453 -3.164139 3.164143
										CHANNELS 3 Xrotation Yrotation Zrotation
										JOINT newVegas:LeftHandThumb3
										{
											OFFSET 5.159721 -2.978973 2.978967
											CHANNELS 3 Xrotation Yrotation Zrotation
											End Site
											{
												OFFSET 2.494507 5.926697 1.738678
											}
										}
									}
								}
								JOINT newVegas:LeftHandIndex1
								{
									OFFSET 18.578728 -0.527832 5.208049
									CHANNELS 3 Xrotation Yrotation Zrotation
									JOINT newVegas:LeftHandIndex2
									{
										OFFSET 3.192009 0.000000 0.000000
										CHANNELS 3 Xrotation Yrotation Zrotation
										JOINT newVegas:LeftHandIndex3
										{
											OFFSET 3.835129 0.000000 0.000000
											CHANNELS 3 Xrotation Yrotation Zrotation
											End Site
											{
												OFFSET -0.034599 3.816971 0.371180
											}
										}
									}
								}
								JOINT newVegas:LeftHandMiddle1
								{
									OFFSET 18.476105 0.000000 0.000000
									CHANNELS 3 Xrotation Yrotation Zrotation
									JOINT newVegas:LeftHandMiddle2
									{
										OFFSET 3.324875 0.000000 0.000000
										CHANNELS 3 Xrotation Yrotation Zrotation
										JOINT newVegas:LeftHandMiddle3
										{
											OFFSET 4.596550 0.000000 0.000000
											CHANNELS 3 Xrotation Yrotation Zrotation
											End Site
											{
												OFFSET 0.057701 4.578827 0.399218
											}
										}
									}
								}
								JOINT newVegas:LeftHandRing1
								{
									OFFSET 17.732719 0.121887 -4.201567
									CHANNELS 3 Xrotation Yrotation Zrotation
									JOINT newVegas:LeftHandRing2
									{
										OFFSET 2.733170 0.000000 0.000000
										CHANNELS 3 Xrotation Yrotation Zrotation
										JOINT newVegas:LeftHandRing3
										{
											OFFSET 3.178268 0.000000 0.000000
											CHANNELS 3 Xrotation Yrotation Zrotation
											End Site
											{
												OFFSET 0.119102 3.170624 0.185394
											}
										}
									}
								}
								JOINT newVegas:LeftHandPinky1
								{
									OFFSET 15.989624 -0.606689 -7.535461
									CHANNELS 3 Xrotation Yrotation Zrotation
									JOINT newVegas:LeftHandPinky2
									{
										OFFSET 2.538986 0.000000 0.000000
										CHANNELS 3 Xrotation Yrotation Zrotation
										JOINT newVegas:LeftHandPinky3
										{
											OFFSET 2.593102 0.000000 0.000000
											CHANNELS 3 Xrotation Yrotation Zrotation
											End Site
											{
												OFFSET -0.150902 2.584198 0.152708
											}
										}
									}
								}
							}
							JOINT newVegas:Left_Sleeve
							{
								OFFSET 0.267448 -0.649796 0.577675
								CHANNELS 3 Xrotation Yrotation Zrotation
								End Site
								{
									OFFSET 0.000000 15.991241 0.000000
								}
							}
							JOINT newVegas:Left_CapeC
							{
								OFFSET 15.715958 -8.608795 -6.935905
								CHANNELS 3 Xrotation Yrotation Zrotation
								JOINT newVegas:Left_CapeC1
								{
									OFFSET 0.000000 -8.688499 0.000000
									CHANNELS 3 Xrotation Yrotation Zrotation
									End Site
									{
										OFFSET 0.000000 8.688499 0.000000
									}
								}
							}
						}
						JOINT newVegas:Left_CapeB
						{
							OFFSET 26.118385 -8.608795 -7.079235
							CHANNELS 3 Xrotation Yrotation Zrotation
							JOINT newVegas:Left_CapeB1
							{
								OFFSET 0.000000 -8.688499 0.000000
								CHANNELS 3 Xrotation Yrotation Zrotation
								End Site
								{
									OFFSET 0.000000 8.688499 0.000000
								}
							}
						}
						JOINT newVegas:Left_CapeA
						{
							OFFSET 5.115639 -8.608795 -10.395809
							CHANNELS 3 Xrotation Yrotation Zrotation
							JOINT newVegas:Left_CapeA1
							{
								OFFSET 0.000000 -8.688499 0.000000
								CHANNELS 3 Xrotation Yrotation Zrotation
								End Site
								{
									OFFSET 0.000000 8.688499 0.000000
								}
							}
						}
					}
				}
				JOINT newVegas:RightShoulder
				{
					OFFSET -15.263000 10.923401 -0.547700
					CHANNELS 3 Xrotation Yrotation Zrotation
					JOINT newVegas:RightArm
					{
						OFFSET -25.438599 -2.830597 -13.032500
						CHANNELS 3 Xrotation Yrotation Zrotation
						JOINT newVegas:RightForeArm
						{
							OFFSET -29.960503 0.000000 0.000000
							CHANNELS 3 Xrotation Yrotation Zrotation
							JOINT newVegas:RightHand
							{
								OFFSET -27.849251 0.000000 0.000000
								CHANNELS 3 Xrotation Yrotation Zrotation
								JOINT newVegas:RightHandThumb1
								{
									OFFSET -4.487587 -3.305161 6.305391
									CHANNELS 3 Xrotation Yrotation Zrotation
									JOINT newVegas:RightHandThumb2
									{
										OFFSET -5.480453 -3.164139 3.164143
										CHANNELS 3 Xrotation Yrotation Zrotation
										JOINT newVegas:RightHandThumb3
										{
											OFFSET -5.159721 -2.978973 2.978967
											CHANNELS 3 Xrotation Yrotation Zrotation
											End Site
											{
												OFFSET -2.494507 5.926697 1.738678
											}
										}
									}
								}
								JOINT newVegas:RightHandIndex1
								{
									OFFSET -18.578728 -0.527832 5.208049
									CHANNELS 3 Xrotation Yrotation Zrotation
									JOINT newVegas:RightHandIndex2
									{
										OFFSET -3.192009 0.000000 0.000000
										CHANNELS 3 Xrotation Yrotation Zrotation
										JOINT newVegas:RightHandIndex3
										{
											OFFSET -3.835129 0.000000 0.000000
											CHANNELS 3 Xrotation Yrotation Zrotation
											End Site
											{
												OFFSET 0.034599 3.816971 0.371180
											}
										}
									}
								}
								JOINT newVegas:RightHandMiddle1
								{
									OFFSET -18.476105 0.000000 0.000000
									CHANNELS 3 Xrotation Yrotation Zrotation
									JOINT newVegas:RightHandMiddle2
									{
										OFFSET -3.324875 0.000000 0.000000
										CHANNELS 3 Xrotation Yrotation Zrotation
										JOINT newVegas:RightHandMiddle3
										{
											OFFSET -4.596550 0.000000 0.000000
											CHANNELS 3 Xrotation Yrotation Zrotation
											End Site
											{
												OFFSET -0.057701 4.578827 0.399218
											}
										}
									}
								}
								JOINT newVegas:RightHandRing1
								{
									OFFSET -17.732719 0.121887 -4.201567
									CHANNELS 3 Xrotation Yrotation Zrotation
									JOINT newVegas:RightHandRing2
									{
										OFFSET -2.733170 0.000000 0.000000
										CHANNELS 3 Xrotation Yrotation Zrotation
										JOINT newVegas:RightHandRing3
										{
											OFFSET -3.178268 0.000000 0.000000
											CHANNELS 3 Xrotation Yrotation Zrotation
											End Site
											{
												OFFSET -0.119102 3.170624 0.185394
											}
										}
									}
								}
								JOINT newVegas:RightHandPinky1
								{
									OFFSET -15.989624 -0.606689 -7.535461
									CHANNELS 3 Xrotation Yrotation Zrotation
									JOINT newVegas:RightHandPinky2
									{
										OFFSET -2.538986 0.000000 0.000000
										CHANNELS 3 Xrotation Yrotation Zrotation
										JOINT newVegas:RightHandPinky3
										{
											OFFSET -2.593102 0.000000 0.000000
											CHANNELS 3 Xrotation Yrotation Zrotation
											End Site
											{
												OFFSET 0.150902 2.584198 0.152708
											}
										}
									}
								}
							}
							JOINT newVegas:Right_CapeC
							{
								OFFSET -15.715958 -8.608795 -6.935905
								CHANNELS 3 Xrotation Yrotation Zrotation
								JOINT newVegas:Right_CapeC1
								{
									OFFSET 0.000000 -8.688499 0.000000
									CHANNELS 3 Xrotation Yrotation Zrotation
									End Site
									{
										OFFSET 0.000000 8.688499 0.000000
									}
								}
							}
							JOINT newVegas:Right_Sleeve
							{
								OFFSET -0.267448 -0.649994 0.577675
								CHANNELS 3 Xrotation Yrotation Zrotation
								End Site
								{
									OFFSET 0.000000 15.991302 0.000000
								}
							}
						}
						JOINT newVegas:Right_CapeA
						{
							OFFSET -5.115540 -8.608795 -10.395824
							CHANNELS 3 Xrotation Yrotation Zrotation
							JOINT newVegas:Right_CapeA1
							{
								OFFSET 0.000000 -8.688499 0.000000
								CHANNELS 3 Xrotation Yrotation Zrotation
								End Site
								{
									OFFSET 0.000000 8.688499 0.000000
								}
							}
						}
						JOINT newVegas:Right_CapeB
						{
							OFFSET -26.118187 -8.608795 -7.079266
							CHANNELS 3 Xrotation Yrotation Zrotation
							JOINT newVegas:Right_CapeB1
							{
								OFFSET 0.000000 -8.688499 0.000000
								CHANNELS 3 Xrotation Yrotation Zrotation
								End Site
								{
									OFFSET 0.000000 8.688499 0.000000
								}
							}
						}
					}
				}
				JOINT newVegas:Left_Collar
				{
					OFFSET 18.625099 8.655502 8.828100
					CHANNELS 3 Xrotation Yrotation Zrotation
					JOINT newVegas:Left_Collar1
					{
						OFFSET 14.783401 10.540405 -1.259500
						CHANNELS 3 Xrotation Yrotation Zrotation
						End Site
						{
							OFFSET 0.000000 18.199875 0.000000
						}
					}
				}
				JOINT newVegas:Collar_Back
				{
					OFFSET 0.000000 15.630707 -20.132601
					CHANNELS 3 Xrotation Yrotation Zrotation
					End Site
					{
						OFFSET 0.000000 22.523010 0.000000
					}
				}
				JOINT newVegas:Left_Peck
				{
					OFFSET 17.239599 -5.132599 25.482599
					CHANNELS 3 Xrotation Yrotation Zrotation
					End Site
					{
						OFFSET 0.000000 22.523010 0.000000
					}
				}
				JOINT newVegas:Right_Peck
				{
					OFFSET -17.239599 -5.132202 25.482599
					CHANNELS 3 Xrotation Yrotation Zrotation
					End Site
					{
						OFFSET 0.000000 22.523010 0.000000
					}
				}
				JOINT newVegas:Right_Collar
				{
					OFFSET -18.625099 8.655792 8.828100
					CHANNELS 3 Xrotation Yrotation Zrotation
					JOINT newVegas:Right_Collar1
					{
						OFFSET -14.783401 10.539993 -1.259500
						CHANNELS 3 Xrotation Yrotation Zrotation
						End Site
						{
							OFFSET 0.000000 18.199631 0.000000
						}
					}
				}
			}
		}
		JOINT newVegas:Belly
		{
			OFFSET 0.000000 -6.540398 9.014299
			CHANNELS 3 Xrotation Yrotation Zrotation
			End Site
			{
				OFFSET 0.000000 11.566666 0.000000
			}
		}
	}
	JOINT newVegas:ElvisFacialAnim_Joint
	{
		OFFSET 1.000000 -95.330101 -8.825800
		CHANNELS 3 Xrotation Yrotation Zrotation
		End Site
		{
			OFFSET 0.000000 35.315800 0.000000
		}
	}
}
MOTION
Frames: 4
Frame Time: 0.033333
93.625641 79.444397 123.331650 152.079872 36.396398 -157.026063 -0.000000 -0.000001 -0.000000 -72.171146 16.748387 -5.094585 55.621027 -10.195140 -1.489645 2.891787 -27.210605 15.628547 -0.000000 -0.000003 -0.000000 0.000000 0.000001 0.000002 -16.429738 16.025546 -23.819028 46.675856 2.712200 -10.193635 -45.526260 14.984344 18.944406 0.000001 -0.000000 0.000000 -0.000000 0.000003 -0.000002 4.672314 16.102063 1.129132 1.789648 4.282671 -0.376825 1.804280 4.356654 -0.312422 1.684145 4.884755 0.563611 1.684137 4.884752 0.563607 -0.000002 -0.000000 -0.000001 1.684213 4.884729 0.563611 1.684204 4.884756 0.563606 -0.000000 0.000000 0.000002 -0.000002 -0.000000 -0.000001 1.361148 5.922051 -19.730828 -28.478580 29.245419 -4.354780 -0.000001 -23.039502 0.000001 -24.023403 -36.143367 -4.741163 -13.616208 -13.221288 -9.213564 11.312094 29.557801 0.876001 0.000001 -0.000001 -0.000001 0.696485 4.984921 -12.788136 0.604226 2.593163 -26.228881 -0.000000 0.000001 0.000004 1.547651 6.487785 -30.034042 1.303526 3.685571 -38.944916 -0.000001 -0.000002 0.000003 2.624068 7.389247 -43.269003 1.522832 3.940920 -42.241541 -0.000002 0.000001 0.000002 3.322712 7.925256 -51.929392 1.956190 4.369684 -48.216921 0.000004 -0.000003 0.000003 0.000000 -0.000000 0.000000 0.000000 -0.000000 0.000000 0.000000 -0.000000 0.000000 -0.000000 -0.000002 0.000000 -0.000000 -0.000003 0.000000 -0.000000 -0.000002 0.000000 -0.000000 -0.000002 0.000000 1.105248 -10.200891 18.726611 -72.058885 71.070113 73.018083 -0.000003 16.618240 -0.000013 94.549277 1.154156 34.986319 -10.964188 7.452536 16.520279 13.695819 -35.992037 0.554758 0.000002 -0.000003 -0.000003 1.884183 -6.071664 43.376069 1.384022 -3.314748 45.314490 -0.000005 -0.000001 0.000000 3.456424 -6.886832 61.846728 2.196143 -3.955020 58.071805 0.000003 0.000000 -0.000000 4.542795 -7.098872 72.739452 2.750650 -4.249830 65.811147 -0.000001 0.000002 -0.000000 5.241593 -7.542576 82.879585 3.898432 -4.595062 80.613683 0.000000 -0.000000 -0.000001 -0.000000 0.000001 0.000002 -0.000000 -0.000000 -0.000000 -0.000000 0.000001 0.000003 0.000001 0.000002 -0.000002 0.000001 0.000003 -0.000001 0.000001 0.000002 -0.000002 0.000001 0.000003 -0.000000 0.000002 0.000000 0.000002 0.000002 0.000000 0.000002 0.000002 0.000000 0.000002 0.000002 0.000000 0.000002 0.000002 0.000000 0.000002 0.000002 0.000000 0.000002 0.000002 0.000000 0.000002 -0.000002 0.000000 0.000001 -0.000000 -0.000001 -0.000000 
94.352715 80.045441 124.911530 160.148921 11.576025 -160.496373 -0.000000 -0.000001 -0.000001 -63.952933 19.681195 -8.521730 46.755633 -5.474389 -5.306177 -4.267163 -28.963236 8.086091 -0.000000 -0.000001 0.000000 0.000001 -0.000001 -0.000000 1.543025 5.252610 -20.283999 38.698107 -7.387600 -8.157379 -49.995796 5.365657 12.584485 0.000000 -0.000000 0.000000 0.000005 -0.000000 0.000000 4.340465 19.641771 1.701975 2.024056 5.282346 -0.162054 2.058104 5.374874 -0.006188 1.961999 8.189916 0.896871 1.962015 8.189912 0.896898 -0.000001 0.000002 0.000002 1.962035 8.189970 0.896863 1.962056 8.189851 0.896882 -0.000002 -0.000003 -0.000000 -0.000001 0.000002 0.000003 1.480604 6.676991 -20.335606 -33.677504 25.715473 -0.466808 0.000007 -22.976082 0.000003 -36.758719 -26.110664 -21.760260 -11.421142 -9.519002 -12.747971 12.424991 31.997363 0.025739 0.000001 0.000001 -0.000003 0.871500 5.480400 -17.913851 0.816308 2.984806 -30.585058 -0.000000 -0.000003 0.000002 2.016324 6.937350 -36.036092 1.611658 4.036343 -43.518649 0.000000 0.000000 -0.000002 3.074104 7.657174 -48.177433 2.027071 4.431837 -49.140537 0.000002 -0.000001 0.000000 3.886200 8.196601 -57.654153 2.646046 4.897726 -56.740499 0.000001 -0.000005 0.000002 -0.000000 -0.000000 0.000000 -0.000000 -0.000000 0.000000 -0.000001 -0.000000 0.000001 0.000001 0.000000 0.000000 0.000001 -0.000001 -0.000001 0.000001 0.000000 0.000000 -0.000001 -0.000001 -0.000001 3.225162 -16.988135 24.111348 -78.936462 67.578418 89.000186 -0.000007 6.956921 0.000008 94.496828 0.564566 29.993109 -11.091765 7.324607 16.303378 13.677320 -35.849846 0.547311 0.000000 -0.000003 -0.000001 1.697184 -5.885259 42.667399 1.337767 -3.268443 44.509279 -0.000002 0.000003 -0.000001 3.273315 -6.806454 60.896307 2.129819 -3.913027 57.105210 0.000000 -0.000002 -0.000001 4.405163 -7.077926 71.729800 2.672266 -4.213841 64.748875 0.000000 -0.000001 -0.000000 5.089653 -7.544182 81.807942 3.759331 -4.569967 78.872900 0.000002 0.000005 0.000002 -0.000001 -0.000000 0.000001 -0.000001 -0.000001 0.000002 -0.000001 -0.000001 0.000001 0.000002 -0.000001 0.000002 0.000002 0.000000 0.000002 0.000002 -0.000001 0.000002 0.000002 0.000000 0.000002 -0.000002 0.000000 0.000002 -0.000002 0.000000 0.000002 -0.000002 0.000000 0.000002 -0.000002 0.000000 0.000002 -0.000002 0.000000 0.000002 -0.000002 0.000000 0.000002 -0.000002 0.000000 0.000002 -0.000001 0.000000 0.000001 -0.000000 -0.000001 -0.000001 
92.808365 78.976852 125.413063 165.714063 -12.778281 -158.237438 -0.000000 -0.000000 0.000000 -71.289505 14.758244 2.734884 45.248805 0.226618 -5.830812 6.013826 -29.633930 -3.670297 -0.000000 -0.000001 -0.000000 -0.000000 -0.000000 0.000000 13.412912 -2.694707 -12.350374 35.051155 -9.893710 -7.108758 -53.510902 -0.598458 0.077072 0.000001 0.000000 -0.000000 0.000002 -0.000000 0.000000 6.779184 22.389954 -0.896572 2.756122 5.983834 -0.274466 2.806385 6.053265 -0.187137 2.089738 10.591119 1.097861 2.089736 10.591105 1.097861 0.000000 -0.000001 -0.000001 2.089701 10.591089 1.097870 2.089826 10.591089 1.097845 0.000000 0.000000 -0.000002 0.000000 -0.000001 -0.000001 1.809501 6.181370 -24.351197 -35.869992 22.766873 1.763396 0.000010 -24.824929 0.000010 -42.038025 -15.413217 -30.400352 -9.790530 -6.834958 -15.308276 13.248359 33.737320 -0.636016 0.000002 0.000000 -0.000004 1.025147 5.826793 -21.573909 0.985093 3.253131 -33.686722 -0.000004 -0.000002 0.000004 2.379812 7.226256 -40.324587 1.847946 4.270773 -46.779894 -0.000001 -0.000003 -0.000001 3.407763 7.823133 -51.681900 2.421272 4.743227 -54.066087 -0.000000 -0.000002 -0.000001 4.306372 8.355444 -61.742642 3.182854 5.209122 -62.829059 -0.000000 -0.000002 -0.000001 0.000001 0.000000 0.000002 0.000001 0.000000 0.000002 0.000000 0.000000 0.000003 0.000002 0.000000 -0.000001 0.000002 -0.000001 -0.000001 0.000002 0.000000 -0.000001 0.000000 -0.000001 -0.000001 0.902233 -11.856855 20.108796 -57.325614 56.650019 69.905764 0.000011 17.473617 -0.000017 93.537426 -1.161809 22.712389 -11.201847 7.215844 16.055531 13.644866 -35.702703 0.532662 0.000001 -0.000002 0.000003 1.460124 -5.642754 41.107541 1.264248 -3.192073 43.204546 0.000001 0.000001 0.000001 3.022217 -6.694586 59.079709 2.030097 -3.846829 55.631460 0.000001 -0.000000 -0.000001 4.193585 -7.045681 69.849838 2.557351 -4.157842 63.174557 -0.000000 0.000001 0.000000 4.860079 -7.536741 79.862089 3.553824 -4.524833 76.281445 0.000000 0.000005 0.000001 0.000000 -0.000001 0.000001 0.000000 -0.000001 0.000002 0.000001 -0.000001 0.000001 -0.000000 0.000004 -0.000000 -0.000000 0.000005 0.000002 -0.000000 0.000004 -0.000000 -0.000000 0.000005 0.000003 -0.000000 0.000000 0.000001 -0.000000 0.000000 0.000001 -0.000000 0.000000 0.000001 -0.000000 0.000000 0.000001 -0.000000 0.000000 0.000001 -0.000000 0.000000 0.000001 -0.000000 0.000000 0.000001 -0.000001 0.000001 0.000001 -0.000000 -0.000000 0.000000 
90.067390 79.631813 127.781281 172.331082 -35.454505 -151.946970 -0.000001 0.000002 0.000001 -56.968914 7.788308 4.800896 -0.290165 1.528476 -3.924150 43.932033 -23.977031 7.428557 -0.000001 -0.000002 -0.000004 -0.000003 0.000004 0.000000 19.975126 -6.593410 -3.602345 31.159661 -9.873954 -7.330528 -52.970381 -3.965446 -13.383084 0.000001 -0.000000 -0.000000 0.000001 -0.000001 0.000000 11.418170 25.088263 -5.112847 3.824717 6.544329 -0.638557 3.888507 6.560582 -0.753621 1.721070 11.187262 1.126566 1.721034 11.187247 1.126569 -0.000000 -0.000001 -0.000001 1.721061 11.187221 1.126572 1.721163 11.187240 1.126552 -0.000001 0.000000 -0.000004 -0.000000 -0.000001 0.000000 1.884464 4.071461 -29.034977 -34.203723 20.448497 0.194185 0.000007 -28.335687 0.000001 -41.234176 -9.560863 -33.004464 -9.124935 -5.742937 -16.343002 13.583646 34.404998 -0.916598 0.000001 0.000000 -0.000003 1.092683 5.961723 -23.023729 1.056915 3.358188 -34.932060 0.000000 0.000001 0.000001 2.529606 7.332654 -42.021632 1.945762 4.360408 -48.080037 -0.000001 0.000001 0.000002 3.542417 7.882917 -53.070522 2.584829 4.857161 -56.020395 0.000002 -0.000004 0.000001 4.476094 8.409832 -63.360748 3.404045 5.316390 -65.240348 -0.000000 -0.000005 -0.000002 -0.000000 0.000000 -0.000000 -0.000000 0.000000 -0.000000 -0.000001 0.000001 0.000000 -0.000002 -0.000001 0.000001 -0.000002 -0.000002 0.000001 -0.000002 -0.000001 0.000001 -0.000004 -0.000002 0.000001 -0.665864 1.645137 13.582833 -41.023141 42.159691 50.340270 0.000013 38.531785 -0.000011 92.007238 -3.698690 13.543969 -11.224803 7.196694 15.711990 13.559011 -35.553160 0.490499 -0.000000 -0.000001 -0.000004 1.160153 -5.305188 38.250241 1.149711 -3.065737 41.106384 -0.000002 -0.000003 -0.000001 2.674201 -6.523249 55.943149 1.879390 -3.739531 53.353531 0.000001 0.000000 -0.000001 3.871280 -6.985492 66.642934 2.386259 -4.067033 60.788957 -0.000001 -0.000001 -0.000003 4.513780 -7.506377 76.583537 3.241298 -4.437162 72.282574 0.000003 -0.000002 -0.000003 -0.000001 0.000000 0.000000 -0.000001 0.000000 0.000000 -0.000001 0.000000 0.000000 0.000000 -0.000001 -0.000000 -0.000000 0.000000 -0.000000 0.000000 -0.000001 -0.000000 -0.000000 -0.000000 -0.000000 0.000001 -0.000001 0.000003 0.000001 -0.000001 0.000003 0.000001 -0.000001 0.000003 0.000001 -0.000001 0.000003 0.000001 -0.000001 0.000003 0.000001 -0.000001 0.000003 0.000001 -0.000001 0.000003 0.000000 -0.000002 -0.000001 -0.000001 0.000002 0.000001 
